<?xml version="1.0" encoding="utf-8"?>
<!-- Generator: Adobe Illustrator 22.0.1, SVG Export Plug-In . SVG Version: 6.00 Build 0)  -->
<svg version="1.1" id="Layer_1" xmlns="http://www.w3.org/2000/svg" xmlns:xlink="http://www.w3.org/1999/xlink" x="0px" y="0px"
	 viewBox="0 0 568.5 324.3" style="enable-background:new 0 0 568.5 324.3;" xml:space="preserve">
<style type="text/css">
	.st0{opacity:0.7;}
	.st1{fill:url(#SVGID_1_);}
	.st2{opacity:0.6;fill:url(#SVGID_2_);enable-background:new    ;}
</style>
<g id="Layer_4">
</g>
<g id="Layer_2_1_">
	<g class="st0">
		<g>
			
				<linearGradient id="SVGID_1_" gradientUnits="userSpaceOnUse" x1="79.4307" y1="-40.7692" x2="470.0234" y2="349.8234" gradientTransform="matrix(1 0 0 -1 0 326)">
				<stop  offset="0" style="stop-color:#161A1F"/>
				<stop  offset="0.1398" style="stop-color:#2A323B"/>
				<stop  offset="0.2581" style="stop-color:#343F4A"/>
				<stop  offset="0.3602" style="stop-color:#2A323B"/>
				<stop  offset="0.4892" style="stop-color:#161A1F"/>
				<stop  offset="0.6129" style="stop-color:#2A323B"/>
				<stop  offset="0.7366" style="stop-color:#343F4A"/>
				<stop  offset="0.8387" style="stop-color:#2A323B"/>
				<stop  offset="1" style="stop-color:#161A1F"/>
			</linearGradient>
			<path class="st1" d="M550.9,317.8h-534c-5.5,0-10-4.5-10-10v-291c0-5.5,4.5-10,10-10h534c5.5,0,10,4.5,10,10v291
				C560.9,313.3,556.4,317.8,550.9,317.8z"/>
			
				<radialGradient id="SVGID_2_" cx="-218.3175" cy="344.2475" r="1168.24" gradientTransform="matrix(1 0 0 -1 0 326)" gradientUnits="userSpaceOnUse">
				<stop  offset="0" style="stop-color:#E8E8E8"/>
				<stop  offset="5.376340e-02" style="stop-color:#A6A6A6"/>
				<stop  offset="0.1398" style="stop-color:#606060"/>
				<stop  offset="0.2094" style="stop-color:#4C4C4C"/>
				<stop  offset="0.3264" style="stop-color:#303030"/>
				<stop  offset="0.4534" style="stop-color:#1B1B1B"/>
				<stop  offset="0.5936" style="stop-color:#0C0C0C"/>
				<stop  offset="0.7571" style="stop-color:#030303"/>
				<stop  offset="1" style="stop-color:#000000"/>
			</radialGradient>
			<path class="st2" d="M550.9,6.8h-534c-5.5,0-10,4.5-10,10v9c112.2,13,525.9,181,543,292h1c5.5,0,10-4.5,10-10v-291
				C560.9,11.2,556.4,6.8,550.9,6.8z"/>
		</g>
	</g>
</g>
</svg>
